<svg xmlns="http://www.w3.org/2000/svg" viewBox="0 0 128 128"><circle cx="34.5" cy="45.5" r="1.5"/><circle cx="55.5" cy="45.5" r="1.5"/><path d="M79.475 81.597 58 75.64v-7.207c3.873-3.065 6.641-7.445 7.61-12.464C70.288 55.653 74 51.757 74 47a8.931 8.931 0 0 0-.945-4.001 3.952 3.952 0 0 0 3.715-2.652c.73-2.068-.351-4.35-2.41-5.085l-.041-.015c3.189-10.595-2.428-21.983-12.91-25.727l-3.932-1.405C58.398 7.382 59 6.266 59 5c0-2.206-1.794-4-4-4s-4 1.794-4 4c0 .286.033.564.09.833l-4.594-1.641c-5.215-1.865-10.843-1.579-15.848.801-4.73 2.25-8.348 6.129-10.317 10.965l-.033-.012a3.935 3.935 0 0 0-3.028.152 3.952 3.952 0 0 0-2.041 2.27c-.73 2.068.351 4.35 2.41 5.085l1.036.37A29.098 29.098 0 0 0 18 30v11.356A8.955 8.955 0 0 0 16 47c0 4.727 3.665 8.606 8.302 8.965A20.387 20.387 0 0 0 32 68.762v6.878l-21.475 5.957C4.917 83.152 1 88.304 1 94.124V127h88V94.124c0-5.82-3.917-10.972-9.525-12.527zM55 3c1.103 0 2 .897 2 2s-.897 2-2 2-2-.897-2-2 .897-2 2-2zm8 122H27v-8c0-1.654 1.346-3 3-3h30c1.654 0 3 1.346 3 3v8zm-3-13H30c-2.757 0-5 2.243-5 5v8h-6v-20.685c.911.435 1.925.685 3 .685s2.089-.251 3-.685V108h40v-3.685c.911.435 1.925.685 3 .685s2.089-.251 3-.685V125h-6v-8c0-2.757-2.243-5-5-5zM45 84.744l6.981 9.973L63 79.692v13.419a6.975 6.975 0 0 0 0 9.778V106H27v-3.111a6.975 6.975 0 0 0 0-9.778V79.692l11.019 15.025L45 84.744zm-20 6.941c-.911-.434-1.925-.685-3-.685s-2.089.251-3 .685V81.322l6-1.664v12.027zM22 93c2.757 0 5 2.243 5 5s-2.243 5-5 5-5-2.243-5-5 2.243-5 5-5zm46 10c-2.757 0-5-2.243-5-5s2.243-5 5-5 5 2.243 5 5-2.243 5-5 5zm3-11.315c-.911-.434-1.925-.685-3-.685s-2.089.251-3 .685V79.658l6 1.664v10.363zM61.297 78.63l-9.278 12.653-5.577-7.967 10.232-5.968 4.623 1.282zm4.604-24.695C65.96 53.297 66 52.653 66 52V40.731l4.07 1.454A6.95 6.95 0 0 1 72 47c0 3.553-2.664 6.491-6.099 6.935zM31.507 6.798a18.58 18.58 0 0 1 14.316-.724l14.914 5.329c9.445 3.374 14.519 13.615 11.699 23.171L22.214 16.63c1.788-4.334 5.044-7.81 9.293-9.832zM17.115 19.033a1.966 1.966 0 0 1 2.51-1.205l54.063 19.316a1.991 1.991 0 0 1 .183 3.665 1.94 1.94 0 0 1-1.497.076L18.312 21.569a1.99 1.99 0 0 1-1.197-2.536zm15.464 9.757a13.038 13.038 0 0 0-8.221 9.242A8.947 8.947 0 0 0 20 39.521V30c0-1.856.198-3.699.571-5.5l12.008 4.29zM18 47c0-3.535 2.636-6.459 6.045-6.927-.022.307-.045.614-.045.927v11.6c0 .449.039.889.067 1.331C20.648 53.472 18 50.542 18 47zm8 5.6V41c0-5.724 4.433-10.492 10.123-10.943L64 40.017V52c0 10.477-8.567 19-19.098 19H44.4C34.254 71 26 62.746 26 52.6zM44.4 73h.502c4.074 0 7.869-1.175 11.098-3.174v5.599l-11 6.417-11-6.417v-5.307A20.244 20.244 0 0 0 44.4 73zm-11.074 4.348 10.232 5.968-5.577 7.967-9.278-12.653 4.623-1.282zm-22.267 6.176L17 81.877v11.234a6.975 6.975 0 0 0 0 9.778V114H3V94.124c0-4.925 3.314-9.283 8.059-10.6zM3 116h14v9H3v-9zm70 9v-9h14v9H73zm14-11H73v-11.111a6.975 6.975 0 0 0 0-9.778V81.877l5.941 1.648C83.686 84.841 87 89.199 87 94.124V114z"/><path d="M40 42v10c0 2.757 2.243 5 5 5s5-2.243 5-5V42c0-.552.449-1 1-1h10v-2H51c-1.654 0-3 1.346-3 3v10c0 1.654-1.346 3-3 3s-3-1.346-3-3V42c0-1.654-1.346-3-3-3H29v2h10c.551 0 1 .448 1 1zm-18 59c1.654 0 3-1.346 3-3s-1.346-3-3-3-3 1.346-3 3 1.346 3 3 3zm0-4a1.001 1.001 0 1 1-1 1c0-.552.449-1 1-1zm46-2c-1.654 0-3 1.346-3 3s1.346 3 3 3 3-1.346 3-3-1.346-3-3-3zm0 4a1.001 1.001 0 0 1 0-2 1.001 1.001 0 0 1 0 2zM83 110h2v2h-2zM79 110h2v2h-2zM75 110h2v2h-2zM13 110h2v2h-2zM9 110h2v2H9zM5 110h2v2H5zM50.731 66a7.254 7.254 0 0 0 3.23-.763l5.645-2.823-2.908-.969v-.001a22.46 22.46 0 0 1-5.359-2.62A4.897 4.897 0 0 0 48.616 58 4.88 4.88 0 0 0 45 59.585 4.878 4.878 0 0 0 41.384 58c-.972 0-1.914.285-2.724.824a22.417 22.417 0 0 1-5.358 2.62l-2.909.97 5.645 2.823A7.195 7.195 0 0 0 45 63.151 7.195 7.195 0 0 0 50.731 66zm-2.115-6c.576 0 1.135.169 1.614.488a24.474 24.474 0 0 0 4.238 2.259l-1.402.701a5.224 5.224 0 0 1-6.682-1.774l-.221-.331A2.895 2.895 0 0 1 48.616 60zm-5 1.674A5.212 5.212 0 0 1 39.269 64c-.807 0-1.615-.19-2.336-.552l-1.401-.701a24.41 24.41 0 0 0 4.238-2.259A2.907 2.907 0 0 1 41.384 60c1.007 0 1.922.508 2.453 1.343l-.221.331zm83.159-11.114-.037-.274c-1.688-11.994-11.698-21.338-23.802-22.215a26.048 26.048 0 0 0-20.319 7.544 26.045 26.045 0 0 0-7.547 20.316c.875 12.104 10.217 22.117 22.211 23.808l.28.037c.266.035.53.052.792.052a5.88 5.88 0 0 0 4.703-2.34c1.357-1.777 1.659-4.179.787-6.266a11.104 11.104 0 0 1-.695-6.044c.734-4.584 4.447-8.297 9.03-9.031a11.125 11.125 0 0 1 6.044.695c2.089.872 4.49.571 6.267-.787a5.887 5.887 0 0 0 2.286-5.495zm-3.502 3.906c-1.23.938-2.83 1.139-4.282.53-2.226-.929-4.692-1.212-7.131-.824-5.425.868-9.82 5.265-10.688 10.689a13.115 13.115 0 0 0 .824 7.131c.606 1.451.408 3.052-.53 4.281-.88 1.152-2.207 1.704-3.646 1.52l-.257-.035c-11.07-1.56-19.69-10.8-20.498-21.972a24.05 24.05 0 0 1 6.966-18.758 24.026 24.026 0 0 1 17.005-7.027c.583 0 1.169.021 1.755.063 11.17.811 20.409 9.432 21.967 20.502l.034.253c.187 1.437-.366 2.766-1.519 3.647z"/><path d="M101 32c-2.757 0-5 2.243-5 5s2.243 5 5 5 5-2.243 5-5-2.243-5-5-5zm0 8c-1.654 0-3-1.346-3-3s1.346-3 3-3 3 1.346 3 3-1.346 3-3 3zm-15.556-1.557a5.006 5.006 0 0 0 0 7.071 4.969 4.969 0 0 0 3.536 1.465 4.968 4.968 0 0 0 3.535-1.465 5.006 5.006 0 0 0 0-7.071 5.007 5.007 0 0 0-7.071 0zm5.657 5.658c-1.134 1.134-3.109 1.132-4.243 0a3.005 3.005 0 0 1 0-4.243 2.99 2.99 0 0 1 2.121-.877 2.99 2.99 0 0 1 2.122.877 3.005 3.005 0 0 1 0 4.243zM89 54c0-2.757-2.243-5-5-5s-5 2.243-5 5 2.243 5 5 5 5-2.243 5-5zm-8 0c0-1.654 1.346-3 3-3s3 1.346 3 3-1.346 3-3 3-3-1.346-3-3zm7.979 7.021a4.97 4.97 0 0 0-3.536 1.465 5.006 5.006 0 0 0 0 7.071 4.983 4.983 0 0 0 3.535 1.462 4.984 4.984 0 0 0 3.536-1.462 5.006 5.006 0 0 0 0-7.071 4.963 4.963 0 0 0-3.535-1.465zm2.122 7.122a3.005 3.005 0 0 1-4.243 0 3.005 3.005 0 0 1 0-4.243 2.984 2.984 0 0 1 2.122-.879 2.98 2.98 0 0 1 2.121.879 3.005 3.005 0 0 1 0 4.243zm18.384-29.7a5.006 5.006 0 0 0 0 7.071 4.968 4.968 0 0 0 3.535 1.465 4.97 4.97 0 0 0 3.536-1.465c1.949-1.949 1.949-5.122 0-7.071s-5.121-1.948-7.071 0zm5.657 5.658c-1.133 1.132-3.108 1.134-4.243 0a3.005 3.005 0 0 1 0-4.243 2.99 2.99 0 0 1 2.122-.877 2.99 2.99 0 0 1 2.121.877 3.003 3.003 0 0 1 0 4.243zM122 68.456a5.516 5.516 0 0 0-1.032-3.222L116 58.279l-4.968 6.955a5.535 5.535 0 0 0 .968 7.481v3.47a2.996 2.996 0 0 0-2 2.816v42c0 3.309 2.691 6 6 6s6-2.691 6-6V79a2.996 2.996 0 0 0-2-2.816v-3.47a5.531 5.531 0 0 0 2-4.258zm-9.34-2.06L116 61.72l3.34 4.676a3.52 3.52 0 0 1 .66 2.06A3.548 3.548 0 0 1 116.456 72h-.912A3.548 3.548 0 0 1 112 68.456c0-.743.228-1.455.66-2.06zM113 78h6c.551 0 1 .448 1 1v3h-8v-3c0-.552.449-1 1-1zm3 47c-2.206 0-4-1.794-4-4V84h8v37c0 2.206-1.794 4-4 4zm2-49h-4v-2.223a5.51 5.51 0 0 0 1.544.223h.912a5.51 5.51 0 0 0 1.544-.223V76z"/></svg>