<svg xmlns="http://www.w3.org/2000/svg" data-name="Layer 1" viewBox="0 0 128 128"><path d="M109.47 14H108v4h1.47a2.616 2.616 0 0 1 2.53 2.69v16.914c0 1.046-.226 2.043-2.927 2.726l-44.575 6.91a10.083 10.083 0 0 0-8.491 9.593A1.927 1.927 0 0 0 56 57v7.138A13.845 13.845 0 0 1 57.849 64h.302a13.845 13.845 0 0 1 1.849.138v-7.05a6.138 6.138 0 0 1 5.169-5.904l44.607-6.914c.058-.01.115-.021.171-.035 4.017-.989 6.053-3.22 6.053-6.631V20.689A6.619 6.619 0 0 0 109.47 14zM58.15 68h-.302a9.883 9.883 0 0 0-9.877 9.817L46 122.047A5.953 5.953 0 0 0 51.94 128h12.12a5.97 5.97 0 0 0 5.938-6.042L68.03 77.906A9.904 9.904 0 0 0 58.151 68zm-.302 4h.302a5.922 5.922 0 0 1 5.881 5.995L64.256 83H51.743l.227-5.094A5.9 5.9 0 0 1 57.849 72zm6.212 52H51.939a1.935 1.935 0 0 1-1.941-1.864L51.564 87h12.87L66 122.047A1.948 1.948 0 0 1 64.06 124z"/><path d="M52 32V15.386a9.278 9.278 0 0 0 3.47.614A8.655 8.655 0 0 0 62 13.07 8.655 8.655 0 0 0 68.53 16a8.728 8.728 0 0 0 3.908-.915A8.346 8.346 0 0 0 89 14V4h6a5.006 5.006 0 0 1 5 5v14a5.006 5.006 0 0 1-5 5H56v4h39a9.01 9.01 0 0 0 9-9V9a9.01 9.01 0 0 0-9-9H29a9.01 9.01 0 0 0-9 9v2h-2a6 6 0 0 0 0 12h2a9.01 9.01 0 0 0 9 9h2v-4h-2a5.006 5.006 0 0 1-5-5V9a5.006 5.006 0 0 1 5-5h6v28a8.173 8.173 0 0 0 8.318 8C48.024 40 52 36.337 52 32zM18 19a2 2 0 0 1 0-4h2v4zm30-8v21c0 2.13-2.188 4-4.682 4A4.173 4.173 0 0 1 39 32V4h46v10a4.332 4.332 0 0 1-8.638 0v-3.467a2 2 0 0 0-3.773-.924A4.53 4.53 0 0 1 68.529 12 4.379 4.379 0 0 1 64 7.8a2 2 0 1 0-4 0 4.379 4.379 0 0 1-4.53 4.2c-2.388 0-3.23-1.028-3.697-1.924A2 2 0 0 0 48 11zM30 37a2 2 0 0 0-2 2v6a2 2 0 0 0 4 0v-6a2 2 0 0 0-2-2z"/><circle cx="30" cy="53" r="2"/><path d="M38 47a2 2 0 0 0-2 2v6a2 2 0 0 0 4 0v-6a2 2 0 0 0-2-2Z"/><circle cx="38" cy="63" r="2"/></svg>