<svg width="39" height="34" viewBox="0 0 39 34" fill="none" xmlns="http://www.w3.org/2000/svg">
<path fill-rule="evenodd" clip-rule="evenodd" d="M0 2C0 0.89543 0.89543 0 2 0H37C38.1046 0 39 0.89543 39 2C39 3.10457 38.1046 4 37 4H2C0.89543 4 0 3.10457 0 2Z" fill="black"/>
<path fill-rule="evenodd" clip-rule="evenodd" d="M0 17C0 15.8954 0.89543 15 2 15H37C38.1046 15 39 15.8954 39 17C39 18.1046 38.1046 19 37 19H2C0.89543 19 0 18.1046 0 17Z" fill="black"/>
<path fill-rule="evenodd" clip-rule="evenodd" d="M0 32C0 30.8954 0.89543 30 2 30H37C38.1046 30 39 30.8954 39 32C39 33.1046 38.1046 34 37 34H2C0.89543 34 0 33.1046 0 32Z" fill="black"/>
</svg>
