<svg width="483" height="303" viewBox="0 0 483 303" fill="none" xmlns="http://www.w3.org/2000/svg">
<path opacity="0.1" d="M4.54785 10.4731C7.05956 10.4731 9.0957 8.32136 9.0957 5.66699C9.0957 3.01263 7.05956 0.86084 4.54785 0.86084C2.03614 0.86084 0 3.01263 0 5.66699C0 8.32136 2.03614 10.4731 4.54785 10.4731Z" fill="#3B4C68"/>
<path opacity="0.1" d="M43.9628 10.4731C46.4745 10.4731 48.5107 8.32136 48.5107 5.66699C48.5107 3.01263 46.4745 0.86084 43.9628 0.86084C41.451 0.86084 39.4149 3.01263 39.4149 5.66699C39.4149 8.32136 41.451 10.4731 43.9628 10.4731Z" fill="#3B4C68"/>
<path opacity="0.1" d="M83.3777 10.4731C85.8894 10.4731 87.9256 8.32136 87.9256 5.66699C87.9256 3.01263 85.8894 0.86084 83.3777 0.86084C80.8659 0.86084 78.8298 3.01263 78.8298 5.66699C78.8298 8.32136 80.8659 10.4731 83.3777 10.4731Z" fill="#3B4C68"/>
<path opacity="0.1" d="M122.793 10.4731C125.304 10.4731 127.34 8.32136 127.34 5.66699C127.34 3.01263 125.304 0.86084 122.793 0.86084C120.281 0.86084 118.245 3.01263 118.245 5.66699C118.245 8.32136 120.281 10.4731 122.793 10.4731Z" fill="#3B4C68"/>
<path opacity="0.1" d="M162.207 10.4731C164.719 10.4731 166.755 8.32136 166.755 5.66699C166.755 3.01263 164.719 0.86084 162.207 0.86084C159.696 0.86084 157.66 3.01263 157.66 5.66699C157.66 8.32136 159.696 10.4731 162.207 10.4731Z" fill="#3B4C68"/>
<path opacity="0.1" d="M201.622 10.4731C204.134 10.4731 206.17 8.32136 206.17 5.66699C206.17 3.01263 204.134 0.86084 201.622 0.86084C199.111 0.86084 197.074 3.01263 197.074 5.66699C197.074 8.32136 199.111 10.4731 201.622 10.4731Z" fill="#3B4C68"/>
<path opacity="0.1" d="M241.037 10.4731C243.549 10.4731 245.585 8.32136 245.585 5.66699C245.585 3.01263 243.549 0.86084 241.037 0.86084C238.526 0.86084 236.489 3.01263 236.489 5.66699C236.489 8.32136 238.526 10.4731 241.037 10.4731Z" fill="#3B4C68"/>
<path opacity="0.1" d="M280.452 10.4731C282.964 10.4731 285 8.32136 285 5.66699C285 3.01263 282.964 0.86084 280.452 0.86084C277.94 0.86084 275.904 3.01263 275.904 5.66699C275.904 8.32136 277.94 10.4731 280.452 10.4731Z" fill="#3B4C68"/>
<path opacity="0.1" d="M319.867 10.4731C322.379 10.4731 324.415 8.32136 324.415 5.66699C324.415 3.01263 322.379 0.86084 319.867 0.86084C317.355 0.86084 315.319 3.01263 315.319 5.66699C315.319 8.32136 317.355 10.4731 319.867 10.4731Z" fill="#3B4C68"/>
<path opacity="0.1" d="M359.282 10.4731C361.794 10.4731 363.83 8.32136 363.83 5.66699C363.83 3.01263 361.794 0.86084 359.282 0.86084C356.77 0.86084 354.734 3.01263 354.734 5.66699C354.734 8.32136 356.77 10.4731 359.282 10.4731Z" fill="#3B4C68"/>
<path opacity="0.1" d="M398.697 10.4731C401.208 10.4731 403.245 8.32136 403.245 5.66699C403.245 3.01263 401.208 0.86084 398.697 0.86084C396.185 0.86084 394.149 3.01263 394.149 5.66699C394.149 8.32136 396.185 10.4731 398.697 10.4731Z" fill="#3B4C68"/>
<path opacity="0.1" d="M438.112 10.4731C440.623 10.4731 442.66 8.32136 442.66 5.66699C442.66 3.01263 440.623 0.86084 438.112 0.86084C435.6 0.86084 433.564 3.01263 433.564 5.66699C433.564 8.32136 435.6 10.4731 438.112 10.4731Z" fill="#3B4C68"/>
<path opacity="0.1" d="M477.527 10.4731C480.038 10.4731 482.074 8.32136 482.074 5.66699C482.074 3.01263 480.038 0.86084 477.527 0.86084C475.015 0.86084 472.979 3.01263 472.979 5.66699C472.979 8.32136 475.015 10.4731 477.527 10.4731Z" fill="#3B4C68"/>
<path opacity="0.1" d="M4.54785 52.1289C7.05956 52.1289 9.0957 49.9769 9.0957 47.3223C9.0957 44.6676 7.05956 42.5156 4.54785 42.5156C2.03614 42.5156 0 44.6676 0 47.3223C0 49.9769 2.03614 52.1289 4.54785 52.1289Z" fill="#3B4C68"/>
<path opacity="0.1" d="M43.9628 52.1289C46.4745 52.1289 48.5106 49.9769 48.5106 47.3223C48.5106 44.6676 46.4745 42.5156 43.9628 42.5156C41.4511 42.5156 39.4149 44.6676 39.4149 47.3223C39.4149 49.9769 41.4511 52.1289 43.9628 52.1289Z" fill="#3B4C68"/>
<path opacity="0.1" d="M83.3777 52.1289C85.8894 52.1289 87.9255 49.9769 87.9255 47.3223C87.9255 44.6676 85.8894 42.5156 83.3777 42.5156C80.8659 42.5156 78.8298 44.6676 78.8298 47.3223C78.8298 49.9769 80.8659 52.1289 83.3777 52.1289Z" fill="#3B4C68"/>
<path opacity="0.1" d="M122.793 52.1289C125.304 52.1289 127.34 49.9769 127.34 47.3223C127.34 44.6676 125.304 42.5156 122.793 42.5156C120.281 42.5156 118.245 44.6676 118.245 47.3223C118.245 49.9769 120.281 52.1289 122.793 52.1289Z" fill="#3B4C68"/>
<path opacity="0.1" d="M162.207 52.1289C164.719 52.1289 166.755 49.9769 166.755 47.3223C166.755 44.6676 164.719 42.5156 162.207 42.5156C159.696 42.5156 157.66 44.6676 157.66 47.3223C157.66 49.9769 159.696 52.1289 162.207 52.1289Z" fill="#3B4C68"/>
<path opacity="0.1" d="M201.622 52.1289C204.134 52.1289 206.17 49.9769 206.17 47.3223C206.17 44.6676 204.134 42.5156 201.622 42.5156C199.111 42.5156 197.074 44.6676 197.074 47.3223C197.074 49.9769 199.111 52.1289 201.622 52.1289Z" fill="#3B4C68"/>
<path opacity="0.1" d="M241.037 52.1289C243.549 52.1289 245.585 49.9769 245.585 47.3223C245.585 44.6676 243.549 42.5156 241.037 42.5156C238.526 42.5156 236.489 44.6676 236.489 47.3223C236.489 49.9769 238.526 52.1289 241.037 52.1289Z" fill="#3B4C68"/>
<path opacity="0.1" d="M280.452 52.1289C282.964 52.1289 285 49.9769 285 47.3223C285 44.6676 282.964 42.5156 280.452 42.5156C277.94 42.5156 275.904 44.6676 275.904 47.3223C275.904 49.9769 277.94 52.1289 280.452 52.1289Z" fill="#3B4C68"/>
<path opacity="0.1" d="M319.867 52.1289C322.379 52.1289 324.415 49.9769 324.415 47.3223C324.415 44.6676 322.379 42.5156 319.867 42.5156C317.355 42.5156 315.319 44.6676 315.319 47.3223C315.319 49.9769 317.355 52.1289 319.867 52.1289Z" fill="#3B4C68"/>
<path opacity="0.1" d="M359.282 52.1289C361.794 52.1289 363.83 49.9769 363.83 47.3223C363.83 44.6676 361.794 42.5156 359.282 42.5156C356.77 42.5156 354.734 44.6676 354.734 47.3223C354.734 49.9769 356.77 52.1289 359.282 52.1289Z" fill="#3B4C68"/>
<path opacity="0.1" d="M398.697 52.1289C401.208 52.1289 403.245 49.9769 403.245 47.3223C403.245 44.6676 401.208 42.5156 398.697 42.5156C396.185 42.5156 394.149 44.6676 394.149 47.3223C394.149 49.9769 396.185 52.1289 398.697 52.1289Z" fill="#3B4C68"/>
<path opacity="0.1" d="M438.112 52.1289C440.623 52.1289 442.66 49.9769 442.66 47.3223C442.66 44.6676 440.623 42.5156 438.112 42.5156C435.6 42.5156 433.564 44.6676 433.564 47.3223C433.564 49.9769 435.6 52.1289 438.112 52.1289Z" fill="#3B4C68"/>
<path opacity="0.1" d="M477.527 52.1289C480.038 52.1289 482.074 49.9769 482.074 47.3223C482.074 44.6676 480.038 42.5156 477.527 42.5156C475.015 42.5156 472.979 44.6676 472.979 47.3223C472.979 49.9769 475.015 52.1289 477.527 52.1289Z" fill="#3B4C68"/>
<path opacity="0.1" d="M4.54785 93.7842C7.05956 93.7842 9.0957 91.6322 9.0957 88.9775C9.0957 86.3229 7.05956 84.1709 4.54785 84.1709C2.03614 84.1709 0 86.3229 0 88.9775C0 91.6322 2.03614 93.7842 4.54785 93.7842Z" fill="#3B4C68"/>
<path opacity="0.1" d="M43.9628 93.7842C46.4745 93.7842 48.5106 91.6322 48.5106 88.9775C48.5106 86.3229 46.4745 84.1709 43.9628 84.1709C41.4511 84.1709 39.4149 86.3229 39.4149 88.9775C39.4149 91.6322 41.4511 93.7842 43.9628 93.7842Z" fill="#3B4C68"/>
<path opacity="0.1" d="M83.3777 93.7842C85.8894 93.7842 87.9255 91.6322 87.9255 88.9775C87.9255 86.3229 85.8894 84.1709 83.3777 84.1709C80.8659 84.1709 78.8298 86.3229 78.8298 88.9775C78.8298 91.6322 80.8659 93.7842 83.3777 93.7842Z" fill="#3B4C68"/>
<path opacity="0.1" d="M122.793 93.7842C125.304 93.7842 127.34 91.6322 127.34 88.9775C127.34 86.3229 125.304 84.1709 122.793 84.1709C120.281 84.1709 118.245 86.3229 118.245 88.9775C118.245 91.6322 120.281 93.7842 122.793 93.7842Z" fill="#3B4C68"/>
<path opacity="0.1" d="M162.207 93.7842C164.719 93.7842 166.755 91.6322 166.755 88.9775C166.755 86.3229 164.719 84.1709 162.207 84.1709C159.696 84.1709 157.66 86.3229 157.66 88.9775C157.66 91.6322 159.696 93.7842 162.207 93.7842Z" fill="#3B4C68"/>
<path opacity="0.1" d="M201.622 93.7842C204.134 93.7842 206.17 91.6322 206.17 88.9775C206.17 86.3229 204.134 84.1709 201.622 84.1709C199.111 84.1709 197.074 86.3229 197.074 88.9775C197.074 91.6322 199.111 93.7842 201.622 93.7842Z" fill="#3B4C68"/>
<path opacity="0.1" d="M241.037 93.7842C243.549 93.7842 245.585 91.6322 245.585 88.9775C245.585 86.3229 243.549 84.1709 241.037 84.1709C238.526 84.1709 236.489 86.3229 236.489 88.9775C236.489 91.6322 238.526 93.7842 241.037 93.7842Z" fill="#3B4C68"/>
<path opacity="0.1" d="M280.452 93.7842C282.964 93.7842 285 91.6322 285 88.9775C285 86.3229 282.964 84.1709 280.452 84.1709C277.94 84.1709 275.904 86.3229 275.904 88.9775C275.904 91.6322 277.94 93.7842 280.452 93.7842Z" fill="#3B4C68"/>
<path opacity="0.1" d="M319.867 93.7842C322.379 93.7842 324.415 91.6322 324.415 88.9775C324.415 86.3229 322.379 84.1709 319.867 84.1709C317.355 84.1709 315.319 86.3229 315.319 88.9775C315.319 91.6322 317.355 93.7842 319.867 93.7842Z" fill="#3B4C68"/>
<path opacity="0.1" d="M359.282 93.7842C361.794 93.7842 363.83 91.6322 363.83 88.9775C363.83 86.3229 361.794 84.1709 359.282 84.1709C356.77 84.1709 354.734 86.3229 354.734 88.9775C354.734 91.6322 356.77 93.7842 359.282 93.7842Z" fill="#3B4C68"/>
<path opacity="0.1" d="M398.697 93.7842C401.208 93.7842 403.245 91.6322 403.245 88.9775C403.245 86.3229 401.208 84.1709 398.697 84.1709C396.185 84.1709 394.149 86.3229 394.149 88.9775C394.149 91.6322 396.185 93.7842 398.697 93.7842Z" fill="#3B4C68"/>
<path opacity="0.1" d="M438.112 93.7842C440.623 93.7842 442.66 91.6322 442.66 88.9775C442.66 86.3229 440.623 84.1709 438.112 84.1709C435.6 84.1709 433.564 86.3229 433.564 88.9775C433.564 91.6322 435.6 93.7842 438.112 93.7842Z" fill="#3B4C68"/>
<path opacity="0.1" d="M477.527 93.7842C480.038 93.7842 482.074 91.6322 482.074 88.9775C482.074 86.3229 480.038 84.1709 477.527 84.1709C475.015 84.1709 472.979 86.3229 472.979 88.9775C472.979 91.6322 475.015 93.7842 477.527 93.7842Z" fill="#3B4C68"/>
<path opacity="0.1" d="M4.54785 135.438C7.05956 135.438 9.0957 133.287 9.0957 130.632C9.0957 127.978 7.05956 125.826 4.54785 125.826C2.03614 125.826 0 127.978 0 130.632C0 133.287 2.03614 135.438 4.54785 135.438Z" fill="#3B4C68"/>
<path opacity="0.1" d="M43.9628 135.438C46.4745 135.438 48.5106 133.287 48.5106 130.632C48.5106 127.978 46.4745 125.826 43.9628 125.826C41.4511 125.826 39.4149 127.978 39.4149 130.632C39.4149 133.287 41.4511 135.438 43.9628 135.438Z" fill="#3B4C68"/>
<path opacity="0.1" d="M83.3777 135.438C85.8894 135.438 87.9255 133.287 87.9255 130.632C87.9255 127.978 85.8894 125.826 83.3777 125.826C80.8659 125.826 78.8298 127.978 78.8298 130.632C78.8298 133.287 80.8659 135.438 83.3777 135.438Z" fill="#3B4C68"/>
<path opacity="0.1" d="M122.793 135.438C125.304 135.438 127.34 133.287 127.34 130.632C127.34 127.978 125.304 125.826 122.793 125.826C120.281 125.826 118.245 127.978 118.245 130.632C118.245 133.287 120.281 135.438 122.793 135.438Z" fill="#3B4C68"/>
<path opacity="0.1" d="M162.207 135.438C164.719 135.438 166.755 133.287 166.755 130.632C166.755 127.978 164.719 125.826 162.207 125.826C159.696 125.826 157.66 127.978 157.66 130.632C157.66 133.287 159.696 135.438 162.207 135.438Z" fill="#3B4C68"/>
<path opacity="0.1" d="M201.622 135.438C204.134 135.438 206.17 133.287 206.17 130.632C206.17 127.978 204.134 125.826 201.622 125.826C199.111 125.826 197.074 127.978 197.074 130.632C197.074 133.287 199.111 135.438 201.622 135.438Z" fill="#3B4C68"/>
<path opacity="0.1" d="M241.037 135.438C243.549 135.438 245.585 133.287 245.585 130.632C245.585 127.978 243.549 125.826 241.037 125.826C238.526 125.826 236.489 127.978 236.489 130.632C236.489 133.287 238.526 135.438 241.037 135.438Z" fill="#3B4C68"/>
<path opacity="0.1" d="M280.452 135.438C282.964 135.438 285 133.287 285 130.632C285 127.978 282.964 125.826 280.452 125.826C277.94 125.826 275.904 127.978 275.904 130.632C275.904 133.287 277.94 135.438 280.452 135.438Z" fill="#3B4C68"/>
<path opacity="0.1" d="M319.867 135.438C322.379 135.438 324.415 133.287 324.415 130.632C324.415 127.978 322.379 125.826 319.867 125.826C317.355 125.826 315.319 127.978 315.319 130.632C315.319 133.287 317.355 135.438 319.867 135.438Z" fill="#3B4C68"/>
<path opacity="0.1" d="M359.282 135.438C361.794 135.438 363.83 133.287 363.83 130.632C363.83 127.978 361.794 125.826 359.282 125.826C356.77 125.826 354.734 127.978 354.734 130.632C354.734 133.287 356.77 135.438 359.282 135.438Z" fill="#3B4C68"/>
<path opacity="0.1" d="M398.697 135.438C401.208 135.438 403.245 133.287 403.245 130.632C403.245 127.978 401.208 125.826 398.697 125.826C396.185 125.826 394.149 127.978 394.149 130.632C394.149 133.287 396.185 135.438 398.697 135.438Z" fill="#3B4C68"/>
<path opacity="0.1" d="M438.112 135.438C440.623 135.438 442.66 133.287 442.66 130.632C442.66 127.978 440.623 125.826 438.112 125.826C435.6 125.826 433.564 127.978 433.564 130.632C433.564 133.287 435.6 135.438 438.112 135.438Z" fill="#3B4C68"/>
<path opacity="0.1" d="M477.527 135.438C480.038 135.438 482.074 133.287 482.074 130.632C482.074 127.978 480.038 125.826 477.527 125.826C475.015 125.826 472.979 127.978 472.979 130.632C472.979 133.287 475.015 135.438 477.527 135.438Z" fill="#3B4C68"/>
<path opacity="0.1" d="M4.54785 177.094C7.05956 177.094 9.0957 174.942 9.0957 172.287C9.0957 169.633 7.05956 167.481 4.54785 167.481C2.03614 167.481 0 169.633 0 172.287C0 174.942 2.03614 177.094 4.54785 177.094Z" fill="#3B4C68"/>
<path opacity="0.1" d="M43.9628 177.094C46.4745 177.094 48.5106 174.942 48.5106 172.287C48.5106 169.633 46.4745 167.481 43.9628 167.481C41.4511 167.481 39.4149 169.633 39.4149 172.287C39.4149 174.942 41.4511 177.094 43.9628 177.094Z" fill="#3B4C68"/>
<path opacity="0.1" d="M83.3777 177.094C85.8894 177.094 87.9255 174.942 87.9255 172.287C87.9255 169.633 85.8894 167.481 83.3777 167.481C80.8659 167.481 78.8298 169.633 78.8298 172.287C78.8298 174.942 80.8659 177.094 83.3777 177.094Z" fill="#3B4C68"/>
<path opacity="0.1" d="M122.793 177.094C125.304 177.094 127.34 174.942 127.34 172.287C127.34 169.633 125.304 167.481 122.793 167.481C120.281 167.481 118.245 169.633 118.245 172.287C118.245 174.942 120.281 177.094 122.793 177.094Z" fill="#3B4C68"/>
<path opacity="0.1" d="M162.207 177.094C164.719 177.094 166.755 174.942 166.755 172.287C166.755 169.633 164.719 167.481 162.207 167.481C159.696 167.481 157.66 169.633 157.66 172.287C157.66 174.942 159.696 177.094 162.207 177.094Z" fill="#3B4C68"/>
<path opacity="0.1" d="M201.622 177.094C204.134 177.094 206.17 174.942 206.17 172.287C206.17 169.633 204.134 167.481 201.622 167.481C199.111 167.481 197.074 169.633 197.074 172.287C197.074 174.942 199.111 177.094 201.622 177.094Z" fill="#3B4C68"/>
<path opacity="0.1" d="M241.037 177.094C243.549 177.094 245.585 174.942 245.585 172.287C245.585 169.633 243.549 167.481 241.037 167.481C238.526 167.481 236.489 169.633 236.489 172.287C236.489 174.942 238.526 177.094 241.037 177.094Z" fill="#3B4C68"/>
<path opacity="0.1" d="M280.452 177.094C282.964 177.094 285 174.942 285 172.287C285 169.633 282.964 167.481 280.452 167.481C277.94 167.481 275.904 169.633 275.904 172.287C275.904 174.942 277.94 177.094 280.452 177.094Z" fill="#3B4C68"/>
<path opacity="0.1" d="M319.867 177.094C322.379 177.094 324.415 174.942 324.415 172.287C324.415 169.633 322.379 167.481 319.867 167.481C317.355 167.481 315.319 169.633 315.319 172.287C315.319 174.942 317.355 177.094 319.867 177.094Z" fill="#3B4C68"/>
<path opacity="0.1" d="M359.282 177.094C361.794 177.094 363.83 174.942 363.83 172.287C363.83 169.633 361.794 167.481 359.282 167.481C356.77 167.481 354.734 169.633 354.734 172.287C354.734 174.942 356.77 177.094 359.282 177.094Z" fill="#3B4C68"/>
<path opacity="0.1" d="M398.697 177.094C401.208 177.094 403.245 174.942 403.245 172.287C403.245 169.633 401.208 167.481 398.697 167.481C396.185 167.481 394.149 169.633 394.149 172.287C394.149 174.942 396.185 177.094 398.697 177.094Z" fill="#3B4C68"/>
<path opacity="0.1" d="M438.112 177.094C440.623 177.094 442.66 174.942 442.66 172.287C442.66 169.633 440.623 167.481 438.112 167.481C435.6 167.481 433.564 169.633 433.564 172.287C433.564 174.942 435.6 177.094 438.112 177.094Z" fill="#3B4C68"/>
<path opacity="0.1" d="M477.527 177.094C480.038 177.094 482.074 174.942 482.074 172.287C482.074 169.633 480.038 167.481 477.527 167.481C475.015 167.481 472.979 169.633 472.979 172.287C472.979 174.942 475.015 177.094 477.527 177.094Z" fill="#3B4C68"/>
<path opacity="0.1" d="M4.54785 218.749C7.05956 218.749 9.0957 216.597 9.0957 213.943C9.0957 211.288 7.05956 209.136 4.54785 209.136C2.03614 209.136 0 211.288 0 213.943C0 216.597 2.03614 218.749 4.54785 218.749Z" fill="#3B4C68"/>
<path opacity="0.1" d="M43.9628 218.749C46.4745 218.749 48.5106 216.597 48.5106 213.943C48.5106 211.288 46.4745 209.136 43.9628 209.136C41.4511 209.136 39.4149 211.288 39.4149 213.943C39.4149 216.597 41.4511 218.749 43.9628 218.749Z" fill="#3B4C68"/>
<path opacity="0.1" d="M83.3777 218.749C85.8894 218.749 87.9255 216.597 87.9255 213.943C87.9255 211.288 85.8894 209.136 83.3777 209.136C80.8659 209.136 78.8298 211.288 78.8298 213.943C78.8298 216.597 80.8659 218.749 83.3777 218.749Z" fill="#3B4C68"/>
<path opacity="0.1" d="M122.793 218.749C125.304 218.749 127.34 216.597 127.34 213.943C127.34 211.288 125.304 209.136 122.793 209.136C120.281 209.136 118.245 211.288 118.245 213.943C118.245 216.597 120.281 218.749 122.793 218.749Z" fill="#3B4C68"/>
<path opacity="0.1" d="M162.207 218.749C164.719 218.749 166.755 216.597 166.755 213.943C166.755 211.288 164.719 209.136 162.207 209.136C159.696 209.136 157.66 211.288 157.66 213.943C157.66 216.597 159.696 218.749 162.207 218.749Z" fill="#3B4C68"/>
<path opacity="0.1" d="M201.622 218.749C204.134 218.749 206.17 216.597 206.17 213.943C206.17 211.288 204.134 209.136 201.622 209.136C199.111 209.136 197.074 211.288 197.074 213.943C197.074 216.597 199.111 218.749 201.622 218.749Z" fill="#3B4C68"/>
<path opacity="0.1" d="M241.037 218.749C243.549 218.749 245.585 216.597 245.585 213.943C245.585 211.288 243.549 209.136 241.037 209.136C238.526 209.136 236.489 211.288 236.489 213.943C236.489 216.597 238.526 218.749 241.037 218.749Z" fill="#3B4C68"/>
<path opacity="0.1" d="M280.452 218.749C282.964 218.749 285 216.597 285 213.943C285 211.288 282.964 209.136 280.452 209.136C277.94 209.136 275.904 211.288 275.904 213.943C275.904 216.597 277.94 218.749 280.452 218.749Z" fill="#3B4C68"/>
<path opacity="0.1" d="M319.867 218.749C322.379 218.749 324.415 216.597 324.415 213.943C324.415 211.288 322.379 209.136 319.867 209.136C317.355 209.136 315.319 211.288 315.319 213.943C315.319 216.597 317.355 218.749 319.867 218.749Z" fill="#3B4C68"/>
<path opacity="0.1" d="M359.282 218.749C361.794 218.749 363.83 216.597 363.83 213.943C363.83 211.288 361.794 209.136 359.282 209.136C356.77 209.136 354.734 211.288 354.734 213.943C354.734 216.597 356.77 218.749 359.282 218.749Z" fill="#3B4C68"/>
<path opacity="0.1" d="M398.697 218.749C401.208 218.749 403.245 216.597 403.245 213.943C403.245 211.288 401.208 209.136 398.697 209.136C396.185 209.136 394.149 211.288 394.149 213.943C394.149 216.597 396.185 218.749 398.697 218.749Z" fill="#3B4C68"/>
<path opacity="0.1" d="M438.112 218.749C440.623 218.749 442.66 216.597 442.66 213.943C442.66 211.288 440.623 209.136 438.112 209.136C435.6 209.136 433.564 211.288 433.564 213.943C433.564 216.597 435.6 218.749 438.112 218.749Z" fill="#3B4C68"/>
<path opacity="0.1" d="M477.527 218.749C480.038 218.749 482.074 216.597 482.074 213.943C482.074 211.288 480.038 209.136 477.527 209.136C475.015 209.136 472.979 211.288 472.979 213.943C472.979 216.597 475.015 218.749 477.527 218.749Z" fill="#3B4C68"/>
<path opacity="0.1" d="M4.54785 260.403C7.05956 260.403 9.0957 258.252 9.0957 255.597C9.0957 252.943 7.05956 250.791 4.54785 250.791C2.03614 250.791 0 252.943 0 255.597C0 258.252 2.03614 260.403 4.54785 260.403Z" fill="#3B4C68"/>
<path opacity="0.1" d="M43.9628 260.403C46.4745 260.403 48.5106 258.252 48.5106 255.597C48.5106 252.943 46.4745 250.791 43.9628 250.791C41.4511 250.791 39.4149 252.943 39.4149 255.597C39.4149 258.252 41.4511 260.403 43.9628 260.403Z" fill="#3B4C68"/>
<path opacity="0.1" d="M83.3777 260.403C85.8894 260.403 87.9255 258.252 87.9255 255.597C87.9255 252.943 85.8894 250.791 83.3777 250.791C80.8659 250.791 78.8298 252.943 78.8298 255.597C78.8298 258.252 80.8659 260.403 83.3777 260.403Z" fill="#3B4C68"/>
<path opacity="0.1" d="M122.793 260.403C125.304 260.403 127.34 258.252 127.34 255.597C127.34 252.943 125.304 250.791 122.793 250.791C120.281 250.791 118.245 252.943 118.245 255.597C118.245 258.252 120.281 260.403 122.793 260.403Z" fill="#3B4C68"/>
<path opacity="0.1" d="M162.207 260.403C164.719 260.403 166.755 258.252 166.755 255.597C166.755 252.943 164.719 250.791 162.207 250.791C159.696 250.791 157.66 252.943 157.66 255.597C157.66 258.252 159.696 260.403 162.207 260.403Z" fill="#3B4C68"/>
<path opacity="0.1" d="M201.622 260.403C204.134 260.403 206.17 258.252 206.17 255.597C206.17 252.943 204.134 250.791 201.622 250.791C199.111 250.791 197.074 252.943 197.074 255.597C197.074 258.252 199.111 260.403 201.622 260.403Z" fill="#3B4C68"/>
<path opacity="0.1" d="M241.037 260.403C243.549 260.403 245.585 258.252 245.585 255.597C245.585 252.943 243.549 250.791 241.037 250.791C238.526 250.791 236.489 252.943 236.489 255.597C236.489 258.252 238.526 260.403 241.037 260.403Z" fill="#3B4C68"/>
<path opacity="0.1" d="M280.452 260.403C282.964 260.403 285 258.252 285 255.597C285 252.943 282.964 250.791 280.452 250.791C277.94 250.791 275.904 252.943 275.904 255.597C275.904 258.252 277.94 260.403 280.452 260.403Z" fill="#3B4C68"/>
<path opacity="0.1" d="M319.867 260.403C322.379 260.403 324.415 258.252 324.415 255.597C324.415 252.943 322.379 250.791 319.867 250.791C317.355 250.791 315.319 252.943 315.319 255.597C315.319 258.252 317.355 260.403 319.867 260.403Z" fill="#3B4C68"/>
<path opacity="0.1" d="M359.282 260.403C361.794 260.403 363.83 258.252 363.83 255.597C363.83 252.943 361.794 250.791 359.282 250.791C356.77 250.791 354.734 252.943 354.734 255.597C354.734 258.252 356.77 260.403 359.282 260.403Z" fill="#3B4C68"/>
<path opacity="0.1" d="M398.697 260.403C401.208 260.403 403.245 258.252 403.245 255.597C403.245 252.943 401.208 250.791 398.697 250.791C396.185 250.791 394.149 252.943 394.149 255.597C394.149 258.252 396.185 260.403 398.697 260.403Z" fill="#3B4C68"/>
<path opacity="0.1" d="M438.112 260.403C440.623 260.403 442.66 258.252 442.66 255.597C442.66 252.943 440.623 250.791 438.112 250.791C435.6 250.791 433.564 252.943 433.564 255.597C433.564 258.252 435.6 260.403 438.112 260.403Z" fill="#3B4C68"/>
<path opacity="0.1" d="M477.527 260.403C480.038 260.403 482.074 258.252 482.074 255.597C482.074 252.943 480.038 250.791 477.527 250.791C475.015 250.791 472.979 252.943 472.979 255.597C472.979 258.252 475.015 260.403 477.527 260.403Z" fill="#3B4C68"/>
<path opacity="0.1" d="M4.54785 302.059C7.05956 302.059 9.0957 299.907 9.0957 297.253C9.0957 294.598 7.05956 292.446 4.54785 292.446C2.03614 292.446 0 294.598 0 297.253C0 299.907 2.03614 302.059 4.54785 302.059Z" fill="#3B4C68"/>
<path opacity="0.1" d="M43.9628 302.059C46.4745 302.059 48.5106 299.907 48.5106 297.253C48.5106 294.598 46.4745 292.446 43.9628 292.446C41.4511 292.446 39.4149 294.598 39.4149 297.253C39.4149 299.907 41.4511 302.059 43.9628 302.059Z" fill="#3B4C68"/>
<path opacity="0.1" d="M83.3777 302.059C85.8894 302.059 87.9255 299.907 87.9255 297.253C87.9255 294.598 85.8894 292.446 83.3777 292.446C80.8659 292.446 78.8298 294.598 78.8298 297.253C78.8298 299.907 80.8659 302.059 83.3777 302.059Z" fill="#3B4C68"/>
<path opacity="0.1" d="M122.793 302.059C125.304 302.059 127.34 299.907 127.34 297.253C127.34 294.598 125.304 292.446 122.793 292.446C120.281 292.446 118.245 294.598 118.245 297.253C118.245 299.907 120.281 302.059 122.793 302.059Z" fill="#3B4C68"/>
<path opacity="0.1" d="M162.207 302.059C164.719 302.059 166.755 299.907 166.755 297.253C166.755 294.598 164.719 292.446 162.207 292.446C159.696 292.446 157.66 294.598 157.66 297.253C157.66 299.907 159.696 302.059 162.207 302.059Z" fill="#3B4C68"/>
<path opacity="0.1" d="M201.622 302.059C204.134 302.059 206.17 299.907 206.17 297.253C206.17 294.598 204.134 292.446 201.622 292.446C199.111 292.446 197.074 294.598 197.074 297.253C197.074 299.907 199.111 302.059 201.622 302.059Z" fill="#3B4C68"/>
<path opacity="0.1" d="M241.037 302.059C243.549 302.059 245.585 299.907 245.585 297.253C245.585 294.598 243.549 292.446 241.037 292.446C238.526 292.446 236.489 294.598 236.489 297.253C236.489 299.907 238.526 302.059 241.037 302.059Z" fill="#3B4C68"/>
<path opacity="0.1" d="M280.452 302.059C282.964 302.059 285 299.907 285 297.253C285 294.598 282.964 292.446 280.452 292.446C277.94 292.446 275.904 294.598 275.904 297.253C275.904 299.907 277.94 302.059 280.452 302.059Z" fill="#3B4C68"/>
<path opacity="0.1" d="M319.867 302.059C322.379 302.059 324.415 299.907 324.415 297.253C324.415 294.598 322.379 292.446 319.867 292.446C317.355 292.446 315.319 294.598 315.319 297.253C315.319 299.907 317.355 302.059 319.867 302.059Z" fill="#3B4C68"/>
<path opacity="0.1" d="M359.282 302.059C361.794 302.059 363.83 299.907 363.83 297.253C363.83 294.598 361.794 292.446 359.282 292.446C356.77 292.446 354.734 294.598 354.734 297.253C354.734 299.907 356.77 302.059 359.282 302.059Z" fill="#3B4C68"/>
<path opacity="0.1" d="M398.697 302.059C401.208 302.059 403.245 299.907 403.245 297.253C403.245 294.598 401.208 292.446 398.697 292.446C396.185 292.446 394.149 294.598 394.149 297.253C394.149 299.907 396.185 302.059 398.697 302.059Z" fill="#3B4C68"/>
<path opacity="0.1" d="M438.112 302.059C440.623 302.059 442.66 299.907 442.66 297.253C442.66 294.598 440.623 292.446 438.112 292.446C435.6 292.446 433.564 294.598 433.564 297.253C433.564 299.907 435.6 302.059 438.112 302.059Z" fill="#3B4C68"/>
<path opacity="0.1" d="M477.527 302.059C480.038 302.059 482.074 299.907 482.074 297.253C482.074 294.598 480.038 292.446 477.527 292.446C475.015 292.446 472.979 294.598 472.979 297.253C472.979 299.907 475.015 302.059 477.527 302.059Z" fill="#3B4C68"/>
</svg>
